<?xml version="1.0" encoding="UTF-8"?>
<svg id="Layer_1" data-name="Layer 1" xmlns="http://www.w3.org/2000/svg" version="1.1" viewBox="0 0 150 150">
  <defs>
    <style>
      .cls-1 {
        fill: #00698f;
        stroke-width: 0px;
      }
    </style>
  </defs>
  <path class="cls-1" d="M75,138.24"/>
  <path class="cls-1" d="M71.68,90.39c.7,1.22.68,2.56-.05,2.98-.73.42-1.9-.22-2.61-1.45-.71-1.22-.68-2.56.05-2.98.73-.43,1.9.22,2.61,1.45Z"/>
  <path class="cls-1" d="M80.76,91.92c.71-1.22.68-2.56-.05-2.98-.73-.43-1.9.22-2.61,1.45-.71,1.22-.68,2.56.05,2.98.74.43,1.9-.22,2.61-1.45Z"/>
  <path class="cls-1" d="M109.45,74.74H40.29v2h3.73c.5,4.31,4.16,7.67,8.61,7.67s8.11-3.35,8.61-7.67h27.28c.5,4.31,4.16,7.67,8.61,7.67s8.11-3.35,8.61-7.67h3.72v-2Z"/>
  <path class="cls-1" d="M68.43,135.85h0c6.57-.34,45.84-11.63,56.83-41.52.02,0,.04,0,.05,0,10.27,0,18.59-8.32,18.59-18.59s-8.33-18.59-18.59-18.59c-.01,0-.03,0-.04,0-5.47-14.78-17.26-26.49-32.09-31.84,0,0-.02,0-.03-.01-5.58-2.13-2.9-4.57-.57-5.92.66-.36,1.37-.72,2.17-1.06-3.91,0-7.46.52-10.68,1.41,1.26-1.69,3.29-3.28,6.52-4.67-4.87,0-9.19.81-13.01,2.14,2-1.95,4.77-3.79,8.63-5.44-35.32,0-52.49,26.38-58.71,39.07-1.07,2.04-2.01,4.15-2.82,6.33,0,0-.02,0-.02,0-10.26,0-18.59,8.32-18.59,18.59s8.33,18.59,18.59,18.59c0,0,.01,0,.02,0,6,15.11,17.54,26.48,33.23,32.29h0s1.08.38,1.56.52c10.54,3.14,10.12,6.92,8.95,8.71M14.4,75.75c0-4.86,3.38-8.93,7.91-10-.61,3.24-.93,6.58-.93,10s.33,6.76.94,10c-4.54-1.07-7.92-5.13-7.92-10ZM74.78,120.81c-24.84,0-44.98-20.14-44.98-44.98s20.14-9.83,44.98-9.83,44.98-15.01,44.98,9.83-20.14,44.98-44.98,44.98ZM127.65,85.75c.61-3.24.94-6.58.94-10s-.33-6.76-.94-10c4.55,1.06,7.95,5.13,7.95,10s-3.4,8.95-7.95,10Z"/>
  <path class="cls-1" d="M81.3,107.31c-1.79-1.32-4.01-2.09-6.4-2.09s-4.61.78-6.4,2.09h12.81Z"/>
</svg>