<?xml version="1.0" encoding="utf-8"?>
<!-- Generator: Adobe Illustrator 22.0.1, SVG Export Plug-In . SVG Version: 6.00 Build 0)  -->
<svg version="1.1" id="Layer_1" xmlns="http://www.w3.org/2000/svg" xmlns:xlink="http://www.w3.org/1999/xlink" x="0px" y="0px"
	 viewBox="0 0 733.7 186.9" style="enable-background:new 0 0 733.7 186.9;" xml:space="preserve">
<style type="text/css">
	.st0{fill:#00a7ce;}
</style>
<g>
	<path class="st0" d="M98.3,73.9c-4.8,0-8.8,1.6-12,4.9c-3.2,3.3-4.8,7.3-4.8,12.2v22.4h5v-23c0-3.2,1.2-5.9,3.5-8.2
		c2.3-2.3,5.1-3.5,8.2-3.5s5.8,1.2,8.1,3.5s3.5,5,3.5,8.2v23h5V90.9c0-4.9-1.6-9-4.8-12.2C107.1,75.4,103.1,73.9,98.3,73.9z"/>
	<path class="st0" d="M369.2,73.9c-4.8,0-8.8,1.6-12,4.9c-3.2,3.3-4.8,7.3-4.8,12.2v22.4h5v-23c0-3.2,1.2-5.9,3.5-8.2
		s5.1-3.5,8.2-3.5s5.8,1.2,8.1,3.5c2.3,2.3,3.5,5,3.5,8.2v23h5V90.9c0-4.9-1.6-9-4.8-12.2C378,75.4,374,73.9,369.2,73.9z"/>
	<path class="st0" d="M167.1,90.9v22.5h5v-23c0-3.2,1.2-5.9,3.5-8.2c2.3-2.3,5.1-3.5,8.2-3.5v-4.9c-4.8,0-8.8,1.6-12,4.9
		C168.7,82,167.1,86.1,167.1,90.9z"/>
	<path class="st0" d="M286.1,73.9c-5.5-0.5-9.8,1.9-13.1,7c-3.3-5.1-7.6-7.5-13.1-7c-4.1,0.3-7.4,1.9-9.9,4.6c-2.7,2.9-4,6.6-4,11.4
		v23.6h5.2V89.3c0-2.9,0.8-5.5,2.5-7.5c1.6-2.1,3.8-3.1,6.6-3.1c2.8,0,5.1,0.9,7.2,2.7s3,4,3,6.8v25.2h5.3V88.1c0-2.7,1-4.9,3-6.8
		s4.4-2.7,7.2-2.7s4.9,1,6.6,3.1c1.7,2.1,2.5,4.6,2.5,7.5v24.2h5.2V89.8c0-4.8-1.4-8.5-4.1-11.4C293.6,75.8,290.2,74.3,286.1,73.9z"
		/>
	<polygon class="st0" points="421.2,73.9 414.9,73.9 399.6,93.6 399.6,59.3 394.4,59.3 394.4,113.3 399.8,113.3 399.8,101.5 
		403.2,97.3 416.5,113.4 423,113.4 406.4,93.4 	"/>
	<path class="st0" d="M69.4,79.9c-3.6-3.8-8.1-5.9-13.3-6.1c-5.4-0.2-10.1,1.7-14,5.7c-3.9,4-5.9,8.7-5.9,14.2
		c0,5.3,1.8,9.8,5.5,13.7c3.6,3.8,8.1,5.8,13.3,5.9c5.4,0.2,10.1-1.7,14.1-5.7c0.3-0.3,0.6-0.7,0.9-0.9v6.6h4.9V92.6l0,0
		C74.6,87.8,72.8,83.5,69.4,79.9z M69.8,94.3c-0.1,3.8-1.6,7-4.3,9.9c-2.9,3.1-6.5,4.6-10.7,4.3c-3.9-0.1-7.2-1.7-9.9-4.7
		c-2.7-3-4-6.5-3.9-10.5c0.1-4,1.5-7.5,4.3-10.4c2.8-2.9,6.3-4.3,10.3-4.2c3.8,0,7.2,1.4,9.8,4.2c2.7,2.8,4.1,6.2,4.3,10.1
		L69.8,94.3L69.8,94.3z"/>
	<path class="st0" d="M442.7,73.9c-5.4-0.2-10.1,1.7-14.1,5.7c-3.9,4-5.9,8.7-5.9,14.2c0,5.3,1.8,9.8,5.5,13.7
		c3.6,3.8,8.1,5.8,13.3,5.9c5.4,0.2,10.1-1.7,14.1-5.7c2.3-2.3,3.9-4.9,4.9-7.7h-5.4c-0.7,1.4-1.6,2.8-2.9,4.1
		c-2.9,3.1-6.5,4.6-10.7,4.3c-3.9-0.1-7.2-1.7-9.9-4.7c-2.2-2.5-3.5-5.3-3.8-8.5h28.6h4.7h0.3c0.1-0.5,0.1-1.1,0.1-1.6
		c0-5.3-1.8-9.9-5.5-13.7C452.4,76.1,448,74.1,442.7,73.9z M428.1,90.7c0.5-2.9,1.9-5.5,4-7.7c2.8-2.9,6.3-4.3,10.3-4.2
		c3.8,0,7.2,1.4,9.8,4.2c2.1,2.2,3.5,4.8,4,7.7H428.1z"/>
	<polygon class="st0" points="209.8,104.9 209,106.8 195.8,73.9 190.3,73.9 205.9,113.5 200.2,128 205.6,128 228.2,73.9 223,73.9 	
		"/>
	<polygon class="st0" points="481.3,104.9 480.5,106.8 467.2,73.9 461.8,73.9 477.4,113.5 471.7,128 477.1,128 499.8,73.9 
		494.5,73.9 	"/>
	<path class="st0" d="M160.4,92h-3.5h-1.6h-11.7v4.6h11.5c-0.5,2.8-1.9,5.3-4,7.6c-2.9,3.1-6.5,4.6-10.7,4.3
		c-3.9-0.1-7.2-1.7-9.9-4.7c-2.7-3-4-6.5-3.9-10.5c0.1-4,1.5-7.5,4.3-10.4c2.8-2.9,6.3-4.3,10.3-4.2c3.8,0,7.2,1.4,9.8,4.2
		c1.2,1.3,2.2,2.7,2.9,4.2h5.4c-0.9-2.7-2.4-5.1-4.5-7.3c-3.6-3.8-8.1-5.9-13.3-6.1c-5.4-0.2-10.1,1.7-14,5.7
		c-3.9,4-5.9,8.7-5.9,14.2c0,5.3,1.8,9.8,5.5,13.7c3.6,3.8,8.1,5.8,13.3,5.9c5.4,0.2,10.1-1.7,14.1-5.7c0.3-0.3,0.6-0.7,0.9-1v6.8h5
		L160.4,92L160.4,92L160.4,92z"/>
	<path class="st0" d="M533.5,109.4c-4.1,0.1-7.6-1.4-10.6-4.3c-3-2.9-4.5-6.4-4.5-10.5c0-4.1,1.6-7.6,4.8-10.6
		c3.1-2.9,6.6-4.3,10.4-4.2c5.8,0.1,10.1,2.6,12.9,7.5h5.7l-0.7-1.6c-1.4-3.1-3.7-5.6-7-7.6c-3.5-2.1-7.1-3.1-11.1-3.1
		c-5.5,0.1-10.3,2.1-14.3,5.9c-4,3.9-5.9,8.5-5.8,14c0.1,5.4,2,10,6,13.7s8.7,5.7,14.1,5.7c8.3,0.1,14.3-3.5,18.3-10.8l0.5-1.1h-5.7
		C543.7,107,539.3,109.4,533.5,109.4z"/>
	<rect x="557.5" y="62.8" class="st0" width="5" height="50.7"/>
	<path class="st0" d="M588.6,75.1c-5.4-0.2-10,1.7-13.9,5.6c-3.9,3.9-5.9,8.6-5.9,14.1c0,5.3,1.8,9.8,5.4,13.6
		c3.6,3.8,8,5.8,13.2,5.9c5.4,0.2,10-1.7,14-5.6c3.9-3.9,5.9-8.6,5.9-14c0-5.3-1.8-9.8-5.5-13.7C598.3,77.3,593.8,75.3,588.6,75.1z
		 M598.1,105.1c-2.9,3.1-6.4,4.5-10.5,4.3c-3.8-0.1-7.2-1.7-9.8-4.7c-2.7-3-4-6.4-3.9-10.4c0.1-4,1.5-7.4,4.3-10.3
		c2.8-2.9,6.2-4.2,10.2-4.2c3.8,0,7.1,1.4,9.8,4.2c2.7,2.8,4.1,6.2,4.2,10.2C602.4,98.4,601.1,102.1,598.1,105.1z"/>
	<path class="st0" d="M641.9,98c0,3.2-1.2,5.9-3.5,8.1c-2.3,2.3-5,3.4-8.1,3.4c-3.1,0-5.8-1.1-8.1-3.4c-2.3-2.3-3.5-4.9-3.5-8.1
		V75.3h-5v22c0,4.9,1.6,8.9,4.7,12.2c3.1,3.3,7.1,4.9,11.9,4.9s8.7-1.6,11.9-4.9c3.1-3.3,4.7-7.3,4.7-12.2v-22h-5V98z"/>
	<path class="st0" d="M692,94.9V63h-5v18.9c-3.6-4.2-8.3-6.4-13.8-6.6c-5.4-0.2-10,1.7-13.9,5.6c-3.9,3.9-5.9,8.6-5.9,14.1
		c0,5.3,1.8,9.8,5.4,13.6c3.6,3.8,8,5.8,13.2,5.9c5.4,0.2,10.1-1.7,14.1-5.6C690.1,104.9,692.1,100.3,692,94.9z M682.8,105.3
		c-2.9,3.1-6.4,4.5-10.5,4.3c-3.8-0.1-7.2-1.7-9.8-4.7c-2.7-3-4-6.4-4-10.4c0.1-4,1.5-7.4,4.3-10.3c2.8-2.9,6.3-4.2,10.2-4.2
		c3.8,0,7.2,1.4,9.8,4.2c2.7,2.8,4.1,6.2,4.2,10.2C687.1,98.7,685.7,102.3,682.8,105.3z"/>
	<path class="st0" d="M340.3,79.9c-3.7-3.9-8.1-5.9-13.4-6.1c-5.5-0.2-10.2,1.7-14.1,5.7c-4,4-5.9,8.7-5.9,14.3
		c0,2.7,0.5,5.1,1.4,7.5l0,0c0,0.1,0,0.1,0.1,0.1c0.3,0.6,0.5,1.2,0.8,1.8c0.1,0.1,0.1,0.3,0.2,0.4c0.1,0.1,0.1,0.2,0.2,0.3
		c2.3,4.1,6,7.2,10.7,8.9l0,0c0,0,0.4,0.1,0.6,0.2c3.8,1.1,3.6,2.5,3.3,3.1l0,0c2.3-0.1,16.3-4.1,20.4-14.7l0,0v-0.1l0,0
		c1-2.3,1.4-4.9,1.4-7.6C345.7,88.3,343.9,83.8,340.3,79.9z M336.4,104.2c-2.9,3.1-6.5,4.6-10.7,4.4c-3.9-0.1-7.2-1.7-10-4.7
		c-2.7-3-4-6.5-3.9-10.5c0.1-4,1.5-7.6,4.4-10.4c2.9-2.9,6.3-4.3,10.4-4.2c3.8,0,7.2,1.4,9.9,4.3c2.7,2.9,4.2,6.3,4.3,10.3
		C340.8,97.5,339.3,101.1,336.4,104.2z"/>
</g>
</svg>
