<svg version="1.1" id="Layer_1" xmlns="http://www.w3.org/2000/svg" x="0" y="0" viewBox="0 0 80 80" xml:space="preserve">
    <style>.st0{fill:#414042}.st2{fill:gold}</style><circle class="st0" cx="39.6" cy="35.1" r="15.2"/>
    <path class="st2" d="M33.9 14.3c.4 4.9-.8 16.5-.7 18.4.1 1 .2 3.2.6 5.9 0 .4-.6.4-.9.4-1.1 0-1.6-1.3-1.8-3.8-.1-1.2-.1-1.9-.1-3.4.1-2 .2-2.6.3-4.7 0-.8.2-1.8.4-4.1.1-2.1.2-3.4.2-4.4 0-3.1-.2-5.2.7-6 .5-.4 1 .2 1.1.6.1.3.2.6.2 1.1z"/>
    <path d="M48.6 35.5s0-.1 0 0c0-2.2-.8-4.1-2.4-5.6-1.6-1.6-3.5-2.4-5.7-2.4s-4.1.8-5.7 2.3c-.2.2-.3.4-.3.6 0 .2.1.4.3.6.2.2.4.3.6.3.2 0 .4 0 .6-.3 1.2-1.2 2.7-1.8 4.5-1.8 1.8 0 3.3.6 4.5 1.9 1.2 1.2 1.9 2.7 1.9 4.4 0 1.7-.6 3.2-1.9 4.4-1.2 1.2-2.8 1.9-4.5 1.9-1.7 0-3.3-.6-4.5-1.8-.2-.2-.5-.3-.6-.3-.2 0-.4.1-.6.3-.2.2-.3.4-.3.6 0 .2.1.4.3.6 1.6 1.6 3.5 2.3 5.7 2.3s4.2-.8 5.7-2.4c1.6-1.5 2.4-3.4 2.4-5.6 0 .1 0 0 0 0z" fill="#fff"/>
</svg>