<svg version="1.1" id="Layer_1" xmlns="http://www.w3.org/2000/svg" x="0" y="0" viewBox="0 0 80 80" xml:space="preserve"><style>.st0{fill:#414042}.st2{fill:gold}</style><path class="st0" d="M50.9 24.8l-.6 1.1 2.8 3 7.6-.7 2-2.4s0-.5-.1-1.1c0-.5-11.7.1-11.7.1z"/><path class="st2" d="M2.4 51.5c.2 2.4-.4 8-.3 9 0 .5.1 1.5.3 2.8 0 .2-.3.2-.4.2-.5 0-.8-.6-.9-1.9V60c0-.9.1-1.2.1-2.3 0-.4.1-.9.2-1.9.1-1 .1-1.8.1-2.3 0-1.4-.1-2.5.4-2.9.1-.1.4.2.4.4.1.1.1.3.1.5zm8.4 11.9c-.1.2-.2.2-.3.2-.1 0-.3-.2-.8-.7-.5-.5-.7-.8-.9-.7-.1 0-.5.2-1.6.6-1.2.4-1.9.6-2.2.6-.2 0-.6-.1-.9-.3s-.4-.5-.4-.8c0-.6.6-1.2 1.8-1.9 1.1-.7 2-1 2.6-1 .2 0 .6.1.7.4v.3c-.1.2-.2.3-.6.1-.1-.1-.2-.1-.3-.1-.2 0-.7.2-1.4.6-.7.4-1.1.7-1.4.9-.1.2-.4.4-.3.7.1.2.4.3.6.2.2 0 .7-.2 1.8-.6 1.1-.4 1.7-.6 1.9-.6.3 0 .6.1.7.2 0 0 .9 1.2 1 1.5.1.1.1.3 0 .4zm10.1-1c0 .3-.5.3-.9.4-.2.1-3.3.8-5.4.8-.7 0-1.4 0-1.9-.1-.6-.1-1-.3-1-.5-.1-.1-.1-.5 0-.6.3-.3 2.2-1.7 2.2-1.7.8-.7 2-1.3 2-1.9 0-.3-.2-.4-.5-.3-.1 0-.5.1-1.3.3-.8.2-1.3.3-1.4.3-.1 0-.4.1-.6-.2 0-.1-.1-.2-.1-.3 0-.1 0-.3.1-.5.4-.5 3.5-.9 4.5-.8.4 0 .5.4.5.8 0 .6-.5 1.4-1.6 2.3-.1.1-.4.3-2.3 2-.1.1 1.4.1 3-.1.8-.1 3.6-.4 3.7-.4.4.1 1 0 1 .5zm6.7-2c.1.6-.8 2.9-1.2 4.1-.1.1-2.4 6.1-2.4 6.2 0 0-.2.6-.5.7h-.3c-.3-.2-.3-.3-.3-.6 0-.5.4-1.6 1-3.3.3-.7.6-1.4 1-2.3.3-.8 1.4-3.7 1.4-3.7l-.9.3c-.6.2-.8.3-.9.3-.1 0-2 .9-2.5-.8-.2-.6-.4-1.1-.4-1.6 0-.1 0-.5.2-.6.1-.1.4-.1.4 0 .6 1.9.9 2.3 1.6 2.3 1.5 0 3-1.8 3.4-1.9.3.1.4.5.4.9z"/><path class="st0" d="M34.1 56c-1 0-1.9.4-2.6 1.1-.1.1-.1.1-.1.2s0 .1.1.2.1.1.2.1.1 0 .2-.1c.6-.6 1.4-.9 2.2-.9.9 0 1.6.3 2.2.9.6.6.9 1.4.9 2.2 0 .9-.3 1.6-.9 2.2-.5.7-1.3 1.1-2.2 1.1-.9 0-1.6-.3-2.2-.9-.6-.6-.9-1.4-.9-2.2v-7.2c0-.2-.1-.3-.3-.3-.2 0-.3.1-.3.3v7.2c0 1 .4 1.9 1.1 2.7.7.7 1.6 1.1 2.7 1.1 1 0 1.9-.4 2.7-1.1.7-.7 1.1-1.6 1.1-2.7 0-1-.4-1.9-1.1-2.7-.8-.8-1.7-1.2-2.8-1.2zm8.5 0c-1 0-1.9.4-2.7 1.1-.7.7-1.1 1.6-1.1 2.7 0 1 .4 1.9 1.1 2.7.7.7 1.6 1.1 2.7 1.1 1 0 1.9-.4 2.6-1.1.1-.1.1-.1.1-.2s0-.1-.1-.2-.1-.1-.2-.1-.1 0-.2.1c-.6.6-1.4.9-2.2.9-.9 0-1.6-.3-2.2-.9-.6-.6-.9-1.4-.9-2.2 0-.9.3-1.6.9-2.2.6-.6 1.4-.9 2.2-.9.9 0 1.6.3 2.2.9.6.6.9 1.4.9 2.2v3.5c0 .2.1.3.3.3.2 0 .3-.1.3-.3v-3.5c0-1-.4-1.9-1.1-2.7-.7-.8-1.6-1.2-2.6-1.2zm8.2 0c-.7 0-1.3.2-1.9.6-.4.3-.8.7-1 1.1v-1.4c0-.2-.1-.3-.3-.3-.2 0-.3.1-.3.3v6.9c0 .2.1.3.3.3.2 0 .3-.1.3-.3v-3.5c0-.9.3-1.6.9-2.3.6-.6 1.3-.9 2-.9.8 0 1.5.3 2 .9.6.6.9 1.4.9 2.3v3.5c0 .2.1.3.3.3.2 0 .3-.1.3-.3v-3.5c0-1-.3-1.9-1-2.6-.7-.7-1.6-1.1-2.5-1.1zm8.1 0c-1 0-1.9.4-2.7 1.1-.7.7-1.1 1.6-1.1 2.7 0 1 .4 1.9 1.1 2.7.7.7 1.6 1.1 2.7 1.1 1 0 1.9-.4 2.6-1.1.1-.1.1-.1.1-.2s0-.1-.1-.2-.1-.1-.2-.1-.1 0-.2.1c-.6.6-1.4.9-2.2.9-.9 0-1.6-.3-2.2-.9-.6-.6-.9-1.4-.9-2.2 0-.9.3-1.6.9-2.2.6-.6 1.4-.9 2.2-.9.9 0 1.6.3 2.2.9.6.6.9 1.4.9 2.2v3.5c0 .2.1.3.3.3s.3-.1.3-.3v-3.5c0-1-.4-1.9-1.1-2.7-.6-.8-1.5-1.2-2.6-1.2zm8.2 0c-.7 0-1.3.2-1.9.6-.4.3-.8.7-1 1.1v-1.4c0-.2-.1-.3-.3-.3-.2 0-.3.1-.3.3v6.9c0 .2.1.3.3.3.2 0 .3-.1.3-.3v-3.5c0-.9.3-1.6.9-2.3.6-.6 1.3-.9 2-.9.8 0 1.5.3 2 .9.6.6.9 1.4.9 2.3v3.5c0 .2.1.3.3.3.2 0 .3-.1.3-.3v-3.5c0-1-.3-1.9-1-2.6-.7-.7-1.5-1.1-2.5-1.1zm10.8 1.1c-.7-.7-1.6-1.1-2.7-1.1-1 0-1.9.4-2.7 1.1-.7.7-1.1 1.6-1.1 2.7 0 1 .4 1.9 1.1 2.7.7.7 1.6 1.1 2.7 1.1 1 0 1.9-.4 2.6-1.1.1-.1.1-.1.1-.2s0-.1-.1-.2-.1-.1-.2-.1-.1 0-.2.1c-.6.6-1.4.9-2.2.9-.9 0-1.6-.3-2.2-.9-.6-.6-.9-1.4-.9-2.2s.3-1.6.9-2.2c.6-.6 1.4-.9 2.2-.9s1.6.3 2.2.9c.6.6.9 1.4.9 2.2v3.5c0 .2.1.3.3.3.2 0 .3-.1.3-.3v-3.5c.1-1.2-.2-2-1-2.8z"/><path class="st2" d="M62.7 24.9c-.3-3.6-2.1-6.3-3.5-7.6-.5-.5-2.3-2-1.5-3.5.3-.5.9-1.1 1.3-1.5-.3 0-4.3.3-5.3 4.5-.7 2.8-1.5 5.5-2.8 8.1h11.8zm-5.5.9c-.2 1.4-1.4 2.5-2.8 2.5-1.5 0-2.7-1.1-2.8-2.5h-1.2C44.9 35.1 34.9 39.7 24.9 39c-1.7-.2-3.8-.9-3.8-.9-1.3-.3-2.6.3-3.3 1.5-.6 1-.6 2.6.3 3.4 1.1.9 2.6 1.8 2.6 1.8 16.2 10 35.1 3.5 41.2-14.5.5-1.6.8-3.1.7-4.5h-5.4z"/></svg>